<svg width="70" height="28" viewBox="0 0 70 28" fill="none" xmlns="http://www.w3.org/2000/svg">
<path d="M2.08046 16.8744L10.8568 8.12933H16.7951L4.96724 19.977L2.08046 16.8744Z" fill="url(#paint0_linear_585_62155)"/>
<path d="M18.8599 27.9759C18.8599 27.9759 9.1984 17.283 8.68037 16.2553C6.87363 12.1385 8.79199 10.1886 8.79199 10.1886L5.18501 13.7817V0H0V27.9759H5.18501V20.2863L12.1479 27.9759H18.8599Z" fill="white"/>
<path d="M25.9966 27.9759H20.8116V0H25.9966V27.9759Z" fill="white"/>
<path d="M47.4048 23.3253V8.12933H42.2198V20.9774C40.2476 23.283 35.9696 24.5705 35.4791 21.8387L35.4815 8.12933H30.2962V22.0529C30.2179 24.3209 31.3614 26.7734 33.5766 27.6246C36.7072 28.6119 39.8841 27.3993 42.4977 25.4696C42.7253 26.2285 43.1367 27.3856 43.6644 27.9759H47.9983C47.6213 26.4535 47.4222 24.893 47.4048 23.3253Z" fill="white"/>
<path d="M69.4973 14.104C67.9768 9.00667 62.3731 6.39359 56.8871 9.40774V0H51.7021V25.9119C61.5481 31.3489 72.491 25.7336 69.4973 14.104ZM64.21 20.1281C63.3988 23.6704 60.3161 24.941 56.8871 23.877V13.7687C62.6609 9.57082 65.5823 14.596 64.21 20.1281Z" fill="white"/>
<defs>
<linearGradient id="paint0_linear_585_62155" x1="0.585822" y1="18.1905" x2="19.401" y2="7.48869" gradientUnits="userSpaceOnUse">
<stop stop-color="#0A0101"/>
<stop offset="1" stop-color="white"/>
</linearGradient>
</defs>
</svg>
