<svg width="44" height="44" viewBox="0 0 44 44" fill="none" xmlns="http://www.w3.org/2000/svg">
<rect width="44" height="44" rx="4" fill="#355FD4"/>
<path d="M31.166 33V30.5556C31.166 29.259 30.659 28.0155 29.7565 27.0986C28.8539 26.1818 27.6299 25.6667 26.3535 25.6667H16.7285C15.4522 25.6667 14.2281 26.1818 13.3256 27.0986C12.423 28.0155 11.916 29.259 11.916 30.5556V33" stroke="#F8F8FE" stroke-width="2" stroke-linecap="round" stroke-linejoin="round"/>
<path d="M21.9993 21.0833C24.5307 21.0833 26.5827 18.8261 26.5827 16.0417C26.5827 13.2572 24.5307 11 21.9993 11C19.468 11 17.416 13.2572 17.416 16.0417C17.416 18.8261 19.468 21.0833 21.9993 21.0833Z" stroke="#F8F8FE" stroke-width="2" stroke-linecap="round" stroke-linejoin="round"/>
</svg>
